<svg xmlns="http://www.w3.org/2000/svg" xmlns:xlink="http://www.w3.org/1999/xlink" width="500" zoomAndPan="magnify" viewBox="0 0 375 374.999991" height="500" preserveAspectRatio="xMidYMid meet" version="1.0"><defs><g/><clipPath id="1be9fa646d"><path d="M 121.460938 60.464844 L 256.34375 60.464844 L 256.34375 117.675781 L 121.460938 117.675781 Z M 121.460938 60.464844 " clip-rule="nonzero"/></clipPath><clipPath id="61c2aa0750"><path d="M 196 60.46875 C 192.496094 60.46875 189.113281 61.386719 185.777344 62.414062 C 180.402344 64.070312 175.105469 65.777344 169.410156 65.777344 C 168.746094 65.777344 168.074219 65.75 167.398438 65.703125 C 167.179688 65.6875 166.964844 65.679688 166.761719 65.679688 C 163.519531 65.679688 162.082031 67.683594 161.726562 71.453125 C 161.46875 74.230469 162.816406 75.945312 165.234375 75.945312 C 165.621094 75.945312 166.035156 75.902344 166.472656 75.8125 C 167.597656 75.578125 168.949219 75.105469 169.625 74.28125 C 171.632812 71.824219 174.324219 70.835938 177.210938 70.753906 C 180.796875 70.648438 184.382812 70.628906 187.972656 70.628906 C 190.289062 70.628906 192.609375 70.636719 194.925781 70.636719 C 196.015625 70.636719 197.109375 70.636719 198.199219 70.628906 C 198.203125 70.628906 198.210938 70.628906 198.214844 70.628906 C 199.75 70.628906 200.300781 71.765625 201.050781 72.796875 C 202.015625 74.125 203.089844 75.386719 204.226562 76.566406 C 204.839844 77.207031 205.695312 77.613281 206.582031 78.226562 C 205.867188 78.882812 205.351562 79.398438 204.800781 79.859375 C 201.621094 82.496094 198.277344 84.953125 195.285156 87.789062 C 191.414062 91.460938 187.796875 95.402344 184.132812 99.285156 C 183.347656 100.117188 182.5625 100.449219 181.621094 100.449219 C 181.238281 100.449219 180.828125 100.390625 180.378906 100.296875 C 164.90625 96.890625 149.300781 94.300781 133.476562 93.304688 C 132.03125 93.210938 130.585938 93.183594 129.140625 93.183594 C 126.679688 93.183594 124.210938 93.265625 121.746094 93.265625 C 155.101562 97.792969 187.59375 105.792969 219.414062 116.78125 L 206.304688 109.882812 L 219.800781 101.417969 C 219.992188 101.765625 220.214844 102.027344 220.289062 102.328125 C 221.59375 107.382812 225.449219 110.976562 227.808594 115.429688 C 228.011719 115.816406 228.464844 116.085938 228.828125 116.375 C 229.671875 117.039062 230.523438 117.4375 231.402344 117.4375 C 232.105469 117.4375 232.824219 117.179688 233.554688 116.597656 C 235.273438 115.226562 237.148438 114.011719 238.679688 112.453125 L 255.144531 95.285156 C 255.9375 94.453125 256.332031 93.605469 256.339844 92.6875 L 256.339844 92.636719 C 256.332031 91.6875 255.917969 90.664062 255.109375 89.496094 C 253.714844 87.480469 252.589844 86.578125 251.210938 86.578125 C 250.648438 86.578125 250.042969 86.726562 249.367188 87.011719 C 247.507812 87.785156 246.996094 89.492188 246.746094 91.226562 C 245.726562 98.402344 240.441406 101.648438 234.6875 104.484375 C 234.25 104.699219 233.875 104.800781 233.558594 104.800781 C 232.78125 104.800781 232.355469 104.183594 232.269531 103.074219 C 232.070312 100.449219 230.898438 98.296875 229.484375 96.121094 C 228.539062 94.660156 228.039062 92.816406 227.714844 91.078125 C 227.085938 87.664062 227.21875 87.683594 230.351562 86.332031 C 230.839844 86.117188 231.28125 86.015625 231.695312 86.015625 C 232.414062 86.015625 233.070312 86.332031 233.789062 86.914062 C 234.6875 87.644531 235.578125 88.792969 236.792969 88.792969 C 237.191406 88.792969 237.625 88.671875 238.105469 88.367188 C 242.921875 85.328125 246.359375 81.164062 247.808594 75.605469 C 249.207031 70.226562 246.320312 65.511719 240.9375 64.027344 C 240.058594 63.785156 239.136719 63.660156 238.214844 63.660156 C 234.394531 63.660156 230.546875 65.789062 229.457031 70.503906 C 229.207031 71.589844 228.886719 72.851562 228.152344 73.589844 C 227.238281 74.507812 225.6875 75.839844 224.777344 75.839844 C 224.683594 75.839844 224.601562 75.828125 224.519531 75.792969 C 221.019531 74.488281 217.558594 73.109375 214.476562 70.664062 C 209.917969 67.042969 204.8125 64.105469 199.921875 60.90625 C 199.613281 60.707031 199.148438 60.730469 198.753906 60.671875 C 197.828125 60.535156 196.910156 60.46875 196 60.46875 Z M 196 60.46875 " clip-rule="nonzero"/></clipPath><clipPath id="bbcbb171fe"><path d="M 118.65625 109.273438 L 223 109.273438 L 223 205.289062 L 118.65625 205.289062 Z M 118.65625 109.273438 " clip-rule="nonzero"/></clipPath><clipPath id="cecc38b9b9"><path d="M 182.359375 133.03125 C 186.648438 134.78125 191.039062 136.566406 195.425781 138.359375 L 195.355469 138.910156 C 189.835938 140.585938 184.246094 141.867188 178.285156 141.921875 C 179.6875 138.867188 180.949219 136.109375 182.355469 133.035156 Z M 154.78125 109.332031 L 154.703125 109.566406 C 158.925781 111.167969 163.152344 112.769531 167.109375 114.269531 C 166.882812 117.664062 166.835938 120.65625 166.433594 123.601562 C 166.15625 125.609375 165.484375 127.582031 164.804688 129.507812 C 163.636719 132.828125 162.222656 136.066406 161.105469 139.40625 C 160.242188 141.992188 159.71875 144.695312 158.96875 147.324219 C 157.964844 150.816406 156.003906 153.585938 152.585938 155.097656 C 148.566406 156.875 145.8125 159.972656 143.507812 163.574219 L 140.640625 167.914062 C 135.933594 174.882812 130.316406 180.820312 122.367188 184.167969 C 121.339844 184.601562 120.289062 185.214844 119.5625 186.023438 C 119.109375 186.527344 118.664062 187.46875 118.660156 188.128906 L 118.660156 188.152344 C 118.660156 188.300781 118.683594 188.433594 118.738281 188.539062 C 119.699219 190.53125 120.988281 192.375 122.246094 194.207031 C 123.777344 196.433594 125.792969 198.414062 126.914062 200.824219 C 128.226562 203.628906 130.957031 205.28125 133.863281 205.28125 C 135.679688 205.28125 137.5625 204.636719 139.214844 203.226562 C 138.28125 202.554688 137.527344 201.695312 136.59375 201.394531 C 134 200.566406 133.011719 198.882812 132.714844 196.234375 C 132.171875 191.433594 133.609375 187.535156 136.859375 184.007812 C 143.78125 176.492188 151.738281 170.25 160.105469 164.476562 L 161.941406 163.480469 C 163.550781 167.257812 164.234375 168.054688 166.441406 168.054688 C 166.628906 168.054688 166.824219 168.050781 167.035156 168.039062 L 167.035156 164.683594 C 167.039062 155.902344 171.617188 151.53125 179.625 150.308594 C 181.824219 149.972656 184.066406 149.878906 186.316406 149.878906 C 189.007812 149.878906 191.710938 150.011719 194.394531 150.015625 L 214.597656 150.152344 C 216.160156 150.140625 217.78125 149.699219 219.261719 149.15625 C 222.207031 148.070312 223.214844 145.816406 222.03125 142.917969 C 221.433594 141.460938 220.515625 140.101562 219.574219 138.828125 C 218.234375 137.003906 216.453125 135.449219 215.398438 133.488281 C 214.726562 132.238281 213.890625 131.683594 212.777344 131.171875 C 197.179688 124.015625 181.210938 117.785156 164.910156 112.421875 C 161.554688 111.320312 158.183594 110.28125 154.78125 109.328125 Z M 154.78125 109.332031 " clip-rule="nonzero"/></clipPath><clipPath id="158a5ad6a9"><path d="M 226.511719 109.425781 L 375 109.425781 L 375 374.925781 L 226.511719 374.925781 Z M 226.511719 109.425781 " clip-rule="nonzero"/></clipPath><clipPath id="a1ab605e32"><path d="M 0 0.246094 L 148.488281 0.246094 L 148.488281 265.5 L 0 265.5 Z M 0 0.246094 " clip-rule="nonzero"/></clipPath></defs><rect x="-37.5" width="450" fill="#ffffff" y="-37.499999" height="449.999989" fill-opacity="1"/><rect x="-37.5" width="450" fill="#ffc63d" y="-37.499999" height="449.999989" fill-opacity="1"/><g clip-path="url(#1be9fa646d)"><g clip-path="url(#61c2aa0750)"><path fill="#000000" d="M 116.65625 58.464844 L 258.34375 58.464844 L 258.34375 207.289062 L 116.65625 207.289062 Z M 116.65625 58.464844 " fill-opacity="1" fill-rule="nonzero"/></g></g><g clip-path="url(#bbcbb171fe)"><g clip-path="url(#cecc38b9b9)"><path fill="#000000" d="M 116.65625 58.464844 L 258.34375 58.464844 L 258.34375 207.289062 L 116.65625 207.289062 Z M 116.65625 58.464844 " fill-opacity="1" fill-rule="nonzero"/></g></g><g clip-path="url(#158a5ad6a9)"><path fill="#000000" d="M 374.925781 109.425781 C 374.925781 197.972656 374.925781 286.625 374.925781 375.171875 C 331.742188 375.171875 269.769531 375.171875 226.582031 375.171875 C 288.347656 347.25 316.585938 311.226562 325.410156 286.003906 C 336.203125 255.378906 327.070312 221.640625 339.214844 175.238281 C 348.351562 140.671875 359.664062 126.761719 374.925781 109.425781 Z M 374.925781 109.425781 " fill-opacity="1" fill-rule="nonzero"/></g><g fill="#000000" fill-opacity="1"><g transform="translate(69.108681, 299.24236)"><g><path d="M -3.9375 0 L 9.0625 -56.390625 L 31.640625 -56.390625 L 29.140625 -45.421875 L 17.921875 -45.421875 L 15.8125 -36.4375 L 26.453125 -36.4375 L 23.953125 -25.59375 L 13.328125 -25.59375 L 7.421875 0 Z M -3.9375 0 "/></g></g></g><g fill="#000000" fill-opacity="1"><g transform="translate(100.152498, 299.24236)"><g><path d="M -4.46875 0 L 8.53125 -56.390625 L 19.421875 -56.390625 L 6.421875 0 Z M -4.46875 0 "/></g></g></g><g fill="#000000" fill-opacity="1"><g transform="translate(119.90791, 299.24236)"><g><path d="M 0.859375 0 L 11.359375 -45.546875 L 4.65625 -45.546875 L 7.15625 -56.390625 L 31.828125 -56.390625 L 29.34375 -45.546875 L 22.640625 -45.546875 L 12.140625 0 Z M 0.859375 0 "/></g></g></g><g fill="#000000" fill-opacity="1"><g transform="translate(150.754828, 299.24236)"><g/></g></g><g fill="#000000" fill-opacity="1"><g transform="translate(170.969662, 299.24236)"><g><path d="M -3.9375 0 L 9.0625 -56.390625 L 31.640625 -56.390625 L 29.140625 -45.421875 L 17.921875 -45.421875 L 15.8125 -36.4375 L 26.453125 -36.4375 L 23.953125 -25.59375 L 13.328125 -25.59375 L 7.421875 0 Z M -3.9375 0 "/></g></g></g><g fill="#000000" fill-opacity="1"><g transform="translate(202.013482, 299.24236)"><g><path d="M -3.9375 0 L 9.0625 -56.390625 L 20.34375 -56.390625 L 9.578125 -9.578125 L 21.203125 -9.578125 L 18.96875 0 Z M -3.9375 0 "/></g></g></g><g fill="#000000" fill-opacity="1"><g transform="translate(232.926047, 299.24236)"><g><path d="M -3.9375 0 L 9.0625 -56.390625 L 31.640625 -56.390625 L 29.140625 -45.484375 L 18.046875 -45.484375 L 15.484375 -34.53125 L 26.125 -34.53125 L 23.6875 -23.890625 L 13.0625 -23.890625 L 10.046875 -10.96875 L 21.859375 -10.96875 L 19.359375 0 Z M -3.9375 0 "/></g></g></g><g fill="#000000" fill-opacity="1"><g transform="translate(264.823065, 299.24236)"><g><path d="M -5.578125 0 L 7.34375 -29.9375 L 8.65625 -56.453125 L 19.6875 -56.453125 L 18.171875 -37.015625 L 25.203125 -56.453125 L 36.296875 -56.453125 L 25.328125 -29.9375 L 24.484375 0 L 13.0625 0 L 14.5625 -22.0625 L 5.90625 0 Z M -5.578125 0 "/></g></g></g><g clip-path="url(#a1ab605e32)"><path fill="#000000" d="M 0.0742188 265.746094 C 0.0742188 177.199219 0.0742188 88.546875 0.0742188 0 C 43.257812 0 105.230469 0 148.414062 0 C 86.648438 27.925781 58.414062 63.945312 49.589844 89.171875 C 38.792969 119.792969 47.929688 153.53125 35.785156 199.933594 C 26.648438 234.5 15.332031 248.410156 0.0742188 265.746094 Z M 0.0742188 265.746094 " fill-opacity="1" fill-rule="nonzero"/></g></svg>